<svg width="50" height="50" viewBox="0 0 50 50" fill="none" xmlns="http://www.w3.org/2000/svg">
<rect id="Rectangle 30" x="7.21582" y="9.5117" width="36.2282" height="31.25" fill="white"/>
<path d="M24.2344 0.511719H25.7355C31.8687 0.511719 37.6792 3.05472 43.1668 8.14072C47.0243 12.7071 49.1467 16.8404 49.5341 20.5408C49.8246 22.2886 49.9699 23.3987 49.9699 23.8711V25.8787C49.9699 29.1224 48.8401 32.8779 46.5804 37.1451C43.2879 42.4043 38.5991 46.0574 32.5143 48.1044C29.4315 48.8759 27.0186 49.2617 25.2755 49.2617H24.6944C18.3191 49.2617 12.4037 46.7581 6.94833 41.7508C2.31611 36.7435 0 30.9254 0 24.2962V24.0128C0 23.7924 0.0484204 23.6034 0.145261 23.4459C0.145261 23.3357 0.0968409 23.2806 0 23.2806C0.629466 18.5883 1.91261 14.7935 3.84942 11.8962C6.91605 7.03061 11.6451 3.56647 18.0366 1.50372C20.4253 0.842387 22.4913 0.511719 24.2344 0.511719ZM20.845 16.0768L20.9903 20.5408C20.9903 20.6825 20.845 20.8321 20.5545 20.9896H18.0366V26.0204H20.5545C20.6997 26.0204 20.845 26.17 20.9903 26.4692V38.8693L21.0629 39.7432H26.3165V26.3275C26.3488 26.1228 26.4456 26.0204 26.607 26.0204H30.8922C31.0859 26.0204 31.3361 24.438 31.6427 21.273V20.9896H26.607C26.4133 20.9896 26.3165 20.8951 26.3165 20.7061V17.2341C26.3165 15.754 27.2042 14.9352 28.9796 14.7777H31.9333V10.4554C31.9333 10.172 30.9003 10.0303 28.8344 10.0303H28.0838C24.6783 10.0303 22.459 11.2742 21.426 13.7621C21.2324 14.2817 21.0387 15.0533 20.845 16.0768Z" fill="#F54C1E"/>
</svg>
