<svg width="51" height="51" viewBox="0 0 51 51" fill="none" xmlns="http://www.w3.org/2000/svg">
<rect x="8.18555" y="10.5117" width="36.2282" height="31.25" fill="white"/>
<path d="M23.8951 0.511719H27.4557C31.2666 0.511719 35.6023 2.09169 40.4629 5.25163C44.1285 8.11989 46.7848 11.4338 48.4319 15.1933C49.9175 18.7746 50.6603 21.7968 50.6603 24.2599V26.326C50.6603 31.8681 48.3915 37.3615 43.8539 42.8063C38.5897 47.9433 32.4777 50.5117 25.5179 50.5117C16.8303 50.5117 9.73329 46.4524 4.22683 38.3338C1.86923 33.9585 0.69043 29.6561 0.69043 25.4266C0.69043 18.4586 3.54862 12.1792 9.265 6.58853C14.5938 2.53732 19.4705 0.511719 23.8951 0.511719ZM12.3654 22.1695V29.8992C12.3654 34.1124 13.6976 36.924 16.362 38.3338C17.557 39.0144 21.4002 39.2656 27.8917 39.0873C32.8653 39.0873 35.7234 38.5445 36.4662 37.4587C38.1456 36.1137 38.9853 33.8856 38.9853 30.7742V20.8326C38.9853 16.911 37.6047 14.3425 34.8434 13.1272L33.0025 12.5195L31.1374 12.3737H20.3587C16.5154 12.3737 13.9479 14.2534 12.6561 18.0129C12.4623 19.1635 12.3654 20.549 12.3654 22.1695ZM20.7946 14.7558H31.1374C34.8837 14.7558 36.7569 16.7328 36.7569 20.6867V31.2118C36.2563 34.8741 34.7303 36.7052 32.179 36.7052H27.8917C25.8893 36.7052 23.7739 36.7538 21.5455 36.851C17.8315 36.851 15.6596 35.6681 15.0298 33.3022C14.836 31.9896 14.7392 30.0126 14.7392 27.3712V24.0897C14.7392 19.1473 15.1348 16.676 15.926 16.676C16.7173 15.3959 18.3402 14.7558 20.7946 14.7558ZM31.2828 18.7665C31.7187 19.755 32.2678 20.2492 32.9298 20.2492C33.5919 20.2492 34.1329 19.755 34.5527 18.7665C34.3266 17.5673 33.7292 16.9677 32.7603 16.9677C31.7753 17.2756 31.2828 17.8752 31.2828 18.7665ZM18.8811 25.8885C18.8811 29.0808 20.7058 31.3009 24.3553 32.5487H27.3104C30.8468 31.2685 32.615 28.9998 32.615 25.7426V25.4266C32.615 23.5793 31.6784 21.8535 29.8052 20.2492C28.5295 19.3579 27.2054 18.9123 25.8328 18.9123H25.6875C22.6355 18.9123 20.5121 20.4923 19.3171 23.6522C19.1556 23.8629 19.0103 24.6083 18.8811 25.8885ZM25.6875 21.2701H25.8328C27.9643 21.2701 29.3934 22.4125 30.1201 24.6974C30.217 24.8271 30.2654 25.1755 30.2654 25.7426C29.7971 28.8054 28.3196 30.3367 25.8328 30.3367C23.8628 30.3367 22.4337 29.3482 21.5455 27.3712C21.4163 27.2092 21.3114 26.7149 21.2306 25.8885C21.5859 22.8096 23.0715 21.2701 25.6875 21.2701Z" fill="url(#paint0_linear_364_9161)"/>
<defs>
<linearGradient id="paint0_linear_364_9161" x1="60.8141" y1="70.661" x2="-11.1026" y2="59.1347" gradientUnits="userSpaceOnUse">
<stop stop-color="#98009F"/>
<stop offset="1" stop-color="#4848FF"/>
</linearGradient>
</defs>
</svg>
