<svg width="50" height="51" viewBox="0 0 50 51" fill="none" xmlns="http://www.w3.org/2000/svg">
<rect x="7.21606" y="10.5117" width="36.2282" height="31.25" fill="white"/>
<path d="M24.9158 0.511719H25.9106C31.3424 0.511719 36.5847 2.63455 41.6376 6.88022C47.0063 12.4709 49.6906 18.337 49.6906 24.4787V26.8608C49.6906 30.4258 48.3484 34.6148 45.6641 39.4276C42.3482 44.2891 37.8322 47.6435 32.1161 49.4908C29.4634 50.1714 27.2527 50.5117 25.4842 50.5117H25.3421C18.726 50.5117 12.8126 47.8541 7.60185 42.5389C3.1806 37.3534 0.969971 31.6817 0.969971 25.5239C0.969971 18.9447 3.47272 12.9246 8.47821 7.46359C13.689 2.82901 19.1682 0.511719 24.9158 0.511719ZM26.3606 21.2215V22.4125C26.3606 22.607 26.258 22.7042 26.0527 22.7042C23.0368 22.2829 20.4472 21.1972 18.2839 19.4471L16.2707 17.5268H16.1049C16.1049 17.6888 15.9154 18.0859 15.5364 18.7178V20.4923C15.6627 21.497 16.3338 22.6313 17.5497 23.8953V24.0411C16.8865 24.0411 16.2154 23.8467 15.5364 23.4578V23.6036C15.5364 25.4996 16.7365 27.1282 19.1366 28.4894L18.8524 28.6352H18.1418L17.4076 28.4894V28.781C18.5129 30.8553 19.9103 31.8924 21.5999 31.8924V32.3299C19.705 33.5129 17.826 34.1043 15.9628 34.1043H15.1101V34.396C17.826 35.6762 20.1787 36.3163 22.1683 36.3163C26.3369 36.3163 29.8897 34.5905 32.8267 31.1388C34.9426 28.1247 36.0005 25.2646 36.0005 22.5584V21.5375C37.5322 20.0304 38.3059 19.1878 38.3217 19.0095V18.8637C37.769 19.1554 36.9953 19.4065 36.0005 19.6172L35.8584 19.3012C36.7584 18.7665 37.4295 18.0291 37.8716 17.0893V16.9434H37.7295C36.3084 17.6402 35.4479 17.9886 35.1478 17.9886H34.7215C33.6636 17.0974 32.7004 16.6031 31.8319 16.5059H30.6713C29.0607 16.5059 27.7659 17.4377 26.7869 19.3012C26.5027 19.7874 26.3606 20.4275 26.3606 21.2215Z" fill="url(#paint0_linear_364_9158)"/>
<defs>
<linearGradient id="paint0_linear_364_9158" x1="59.5906" y1="70.661" x2="-10.6151" y2="59.6902" gradientUnits="userSpaceOnUse">
<stop stop-color="#98009F"/>
<stop offset="1" stop-color="#4848FF"/>
</linearGradient>
</defs>
</svg>
