<svg width="50" height="51" viewBox="0 0 50 51" fill="none" xmlns="http://www.w3.org/2000/svg">
<g id="Group 1000006901">
<rect id="Rectangle 30" x="7.21582" y="10.5117" width="36.2282" height="31.25" fill="white"/>
<path id="D" d="M24.9156 0.511719H25.9103C31.3422 0.511719 36.5845 2.63455 41.6374 6.88022C47.006 12.4709 49.6904 18.337 49.6904 24.4787V26.8608C49.6904 30.4258 48.3482 34.6148 45.6639 39.4276C42.3479 44.2891 37.8319 47.6435 32.1159 49.4908C29.4631 50.1714 27.2525 50.5117 25.484 50.5117H25.3419C18.7258 50.5117 12.8124 47.8541 7.60161 42.5389C3.18035 37.3534 0.969727 31.6817 0.969727 25.5239C0.969727 18.9447 3.47247 12.9246 8.47796 7.46359C13.6887 2.82901 19.1679 0.511719 24.9156 0.511719ZM26.3604 21.2215V22.4125C26.3604 22.607 26.2577 22.7042 26.0524 22.7042C23.0365 22.2829 20.4469 21.1972 18.2837 19.4471L16.2704 17.5268H16.1046C16.1046 17.6888 15.9151 18.0859 15.5362 18.7178V20.4923C15.6625 21.497 16.3336 22.6313 17.5494 23.8953V24.0411C16.8862 24.0411 16.2152 23.8467 15.5362 23.4578V23.6036C15.5362 25.4996 16.7362 27.1282 19.1363 28.4894L18.8521 28.6352H18.1416L17.4073 28.4894V28.781C18.5126 30.8553 19.9101 31.8924 21.5996 31.8924V32.3299C19.7048 33.5129 17.8258 34.1043 15.9625 34.1043H15.1098V34.396C17.8258 35.6762 20.1785 36.3163 22.1681 36.3163C26.3367 36.3163 29.8895 34.5905 32.8264 31.1388C34.9423 28.1247 36.0003 25.2646 36.0003 22.5584V21.5375C37.5319 20.0304 38.3056 19.1878 38.3214 19.0095V18.8637C37.7688 19.1554 36.995 19.4065 36.0003 19.6172L35.8582 19.3012C36.7582 18.7665 37.4293 18.0291 37.8714 17.0893V16.9434H37.7293C36.3082 17.6402 35.4476 17.9886 35.1476 17.9886H34.7213C33.6633 17.0974 32.7001 16.6031 31.8317 16.5059H30.6711C29.0605 16.5059 27.7657 17.4377 26.7867 19.3012C26.5025 19.7874 26.3604 20.4275 26.3604 21.2215Z" fill="#F54C1E"/>
</g>
</svg>
